M48
;DRILL file {kicad (after 2015-mar-04 BZR unknown)-product} date 12/05/2015 22:32:07
;FORMAT={3:3/ absolute / metric / suppress leading zeros}
FMAT,2
METRIC,TZ
T1C0.400
T2C0.800
T3C0.813
T4C1.016
T5C1.199
T6C3.000
%
G90
G05
M71
T1
X4807Y-13208
X8490Y-17145
X9633Y-17145
X10649Y-17145
X12681Y-5461
X15729Y-10541
X16999Y-15875
X19412Y-5715
X20174Y-14986
X20174Y-18532
X20555Y-13208
X21825Y-18415
X21825Y-15494
X23095Y-12192
X23095Y-18161
X24464Y-21590
X26905Y-17653
X26905Y-21336
X27540Y-12954
X29445Y-21590
X30080Y-14097
X31604Y-24185
X38970Y-22860
T2
X17380Y-7620
X17380Y-22860
X19920Y-7620
X19920Y-22860
X22460Y-7620
X22460Y-22860
X25000Y-7620
X25000Y-22860
X27540Y-7620
X27540Y-22860
X30080Y-7620
X30080Y-22860
X32620Y-7620
X32620Y-22860
T3
X870Y-29210
X870Y-34290
X870Y-39370
X870Y-44450
X870Y-49530
X870Y-54610
X8490Y-29210
X8490Y-34290
X8490Y-39370
X8490Y-44450
X8490Y-49530
X8490Y-54610
X11030Y-29210
X11030Y-34290
X11030Y-39370
X11030Y-44450
X11030Y-49530
X11030Y-54610
X11030Y-59690
X11030Y-64770
X18650Y-29210
X18650Y-34290
X18650Y-39370
X18650Y-44450
X18650Y-49530
X18650Y-54610
X18650Y-59690
X18650Y-64770
X21190Y-29210
X21190Y-34290
X21190Y-39370
X21190Y-44450
X21190Y-49530
X21190Y-54610
X21190Y-59690
X21190Y-64770
X28810Y-29210
X28810Y-34290
X28810Y-39370
X28810Y-44450
X28810Y-49530
X28810Y-54610
X28810Y-59690
X28810Y-64770
X31350Y-29210
X31350Y-34290
X31350Y-39370
X31350Y-44450
X31350Y-49530
X31350Y-54610
X31350Y-59690
X31350Y-64770
X38970Y-29210
X38970Y-34290
X38970Y-39370
X38970Y-44450
X38970Y-49530
X38970Y-54610
X38970Y-59690
X38970Y-64770
X41510Y-29210
X41510Y-34290
X41510Y-39370
X41510Y-44450
X41510Y-49530
X41510Y-54610
X49130Y-29210
X49130Y-34290
X49130Y-39370
X49130Y-44450
X49130Y-49530
X49130Y-54610
T4
X19920Y-2540
X22460Y-2540
X25000Y-2540
X27540Y-2540
X30080Y-2540
T5
X2219Y-8890
X4759Y-26035
X12221Y-8890
X14761Y-26035
X19999Y-26035
X30001Y-26035
X35239Y-26035
X45241Y-26035
T6
X3000Y-3000
X3000Y-64000
X47000Y-3000
X47000Y-64000
T0
M30
