%TF.GenerationSoftware,KiCad,Pcbnew,(after 2015-mar-04 BZR unknown)-product*%
%TF.CreationDate,2015-05-12T22:31:50+02:00*%
%TF.JobID,7seg_htk16k33,377365675F68746B31366B33332E6B69,rev?*%
%TF.FileFunction,Soldermask,Top*%
%FSLAX46Y46*%
G04 Gerber Fmt 4.6, Leading zero omitted, Abs format (unit mm)*
G04 Created by KiCad (PCBNEW (after 2015-mar-04 BZR unknown)-product) date 12/05/2015 22:31:50*
%MOMM*%
G01*
G04 APERTURE LIST*
%ADD10C,0.020000*%
%ADD11C,4.000000*%
%ADD12C,1.397000*%
%ADD13R,4.498340X2.700020*%
%ADD14R,1.600000X1.600000*%
%ADD15C,1.600000*%
%ADD16R,1.727200X2.032000*%
%ADD17O,1.727200X2.032000*%
G04 APERTURE END LIST*
D10*
D11*
X47000000Y-64000000D03*
X3000000Y-64000000D03*
X3000000Y-3000000D03*
D12*
X49130000Y-29210000D03*
X49130000Y-34290000D03*
X41510000Y-29210000D03*
X41510000Y-34290000D03*
D13*
X3318560Y-8890000D03*
X11121440Y-8890000D03*
X36338560Y-26035000D03*
X44141440Y-26035000D03*
X5858560Y-26035000D03*
X13661440Y-26035000D03*
X21098560Y-26035000D03*
X28901440Y-26035000D03*
D14*
X17380000Y-22860000D03*
D15*
X19920000Y-22860000D03*
X22460000Y-22860000D03*
X25000000Y-22860000D03*
X27540000Y-22860000D03*
X30080000Y-22860000D03*
X32620000Y-22860000D03*
X32620000Y-7620000D03*
X30080000Y-7620000D03*
X27540000Y-7620000D03*
X25000000Y-7620000D03*
X22460000Y-7620000D03*
X19920000Y-7620000D03*
X17380000Y-7620000D03*
D16*
X19920000Y-2540000D03*
D17*
X22460000Y-2540000D03*
X25000000Y-2540000D03*
X27540000Y-2540000D03*
X30080000Y-2540000D03*
D12*
X18650000Y-29210000D03*
X18650000Y-34290000D03*
X11030000Y-29210000D03*
X11030000Y-34290000D03*
X18650000Y-39370000D03*
X18650000Y-44450000D03*
X11030000Y-39370000D03*
X11030000Y-44450000D03*
X18650000Y-49530000D03*
X18650000Y-54610000D03*
X11030000Y-49530000D03*
X11030000Y-54610000D03*
X28810000Y-29210000D03*
X28810000Y-34290000D03*
X21190000Y-29210000D03*
X21190000Y-34290000D03*
X28810000Y-39370000D03*
X28810000Y-44450000D03*
X21190000Y-39370000D03*
X21190000Y-44450000D03*
X28810000Y-49530000D03*
X28810000Y-54610000D03*
X21190000Y-49530000D03*
X21190000Y-54610000D03*
X38970000Y-29210000D03*
X38970000Y-34290000D03*
X31350000Y-29210000D03*
X31350000Y-34290000D03*
X38970000Y-39370000D03*
X38970000Y-44450000D03*
X31350000Y-39370000D03*
X31350000Y-44450000D03*
X38970000Y-49530000D03*
X38970000Y-54610000D03*
X31350000Y-49530000D03*
X31350000Y-54610000D03*
X38970000Y-59690000D03*
X38970000Y-64770000D03*
X31350000Y-59690000D03*
X31350000Y-64770000D03*
X28810000Y-59690000D03*
X28810000Y-64770000D03*
X21190000Y-59690000D03*
X21190000Y-64770000D03*
X18650000Y-59690000D03*
X18650000Y-64770000D03*
X11030000Y-59690000D03*
X11030000Y-64770000D03*
X8490000Y-29210000D03*
X8490000Y-34290000D03*
X870000Y-29210000D03*
X870000Y-34290000D03*
X8490000Y-39370000D03*
X8490000Y-44450000D03*
X870000Y-39370000D03*
X870000Y-44450000D03*
X8490000Y-49530000D03*
X8490000Y-54610000D03*
X870000Y-49530000D03*
X870000Y-54610000D03*
X49130000Y-39370000D03*
X49130000Y-44450000D03*
X41510000Y-39370000D03*
X41510000Y-44450000D03*
X49130000Y-49530000D03*
X49130000Y-54610000D03*
X41510000Y-49530000D03*
X41510000Y-54610000D03*
D11*
X47000000Y-3000000D03*
M02*
